G75*
%MOIN*%
%OFA0B0*%
%FSLAX25Y25*%
%IPPOS*%
%LPD*%
%AMOC8*
5,1,8,0,0,1.08239X$1,22.5*
%
%ADD10C,0.06000*%
%ADD11C,0.05150*%
%ADD12C,0.05150*%
%ADD13C,0.04000*%
D10*
X0021000Y0018000D02*
X0021000Y0024000D01*
X0031000Y0024000D02*
X0031000Y0018000D01*
X0041000Y0018000D02*
X0041000Y0024000D01*
X0066000Y0024000D02*
X0066000Y0018000D01*
X0076000Y0018000D02*
X0076000Y0024000D01*
X0086000Y0024000D02*
X0086000Y0018000D01*
X0096000Y0018000D02*
X0096000Y0024000D01*
X0106000Y0024000D02*
X0106000Y0018000D01*
X0116000Y0018000D02*
X0116000Y0024000D01*
X0141000Y0024000D02*
X0141000Y0018000D01*
X0151000Y0018000D02*
X0151000Y0024000D01*
X0161000Y0024000D02*
X0161000Y0018000D01*
X0171000Y0018000D02*
X0171000Y0024000D01*
X0181000Y0024000D02*
X0181000Y0018000D01*
X0191000Y0018000D02*
X0191000Y0024000D01*
X0233000Y0021000D02*
X0239000Y0021000D01*
X0239000Y0031000D02*
X0233000Y0031000D01*
X0233000Y0041000D02*
X0239000Y0041000D01*
X0239000Y0051000D02*
X0233000Y0051000D01*
X0236000Y0068000D02*
X0236000Y0074000D01*
X0226000Y0074000D02*
X0226000Y0068000D01*
X0273000Y0076000D02*
X0279000Y0076000D01*
X0279000Y0086000D02*
X0273000Y0086000D01*
X0273000Y0096000D02*
X0279000Y0096000D01*
X0279000Y0106000D02*
X0273000Y0106000D01*
X0273000Y0116000D02*
X0279000Y0116000D01*
X0279000Y0126000D02*
X0273000Y0126000D01*
X0236000Y0129000D02*
X0236000Y0123000D01*
X0226000Y0123000D02*
X0226000Y0129000D01*
X0216000Y0129000D02*
X0216000Y0123000D01*
X0206000Y0123000D02*
X0206000Y0129000D01*
X0398000Y0051000D02*
X0404000Y0051000D01*
X0404000Y0041000D02*
X0398000Y0041000D01*
X0398000Y0031000D02*
X0404000Y0031000D01*
X0404000Y0021000D02*
X0398000Y0021000D01*
D11*
X0156000Y0063425D02*
X0156000Y0068575D01*
X0146000Y0068575D02*
X0146000Y0063425D01*
X0136000Y0063425D02*
X0136000Y0068575D01*
X0126000Y0068575D02*
X0126000Y0063425D01*
X0116000Y0063425D02*
X0116000Y0068575D01*
X0106000Y0068575D02*
X0106000Y0063425D01*
X0096000Y0063425D02*
X0096000Y0068575D01*
X0086000Y0068575D02*
X0086000Y0063425D01*
X0076000Y0063425D02*
X0076000Y0068575D01*
X0066000Y0068575D02*
X0066000Y0063425D01*
X0056000Y0063425D02*
X0056000Y0068575D01*
X0046000Y0068575D02*
X0046000Y0063425D01*
X0036000Y0063425D02*
X0036000Y0068575D01*
X0026000Y0068575D02*
X0026000Y0063425D01*
X0016000Y0063425D02*
X0016000Y0068575D01*
X0016000Y0123425D02*
X0016000Y0128575D01*
X0026000Y0128575D02*
X0026000Y0123425D01*
X0036000Y0123425D02*
X0036000Y0128575D01*
X0046000Y0128575D02*
X0046000Y0123425D01*
X0056000Y0123425D02*
X0056000Y0128575D01*
X0066000Y0128575D02*
X0066000Y0123425D01*
X0076000Y0123425D02*
X0076000Y0128575D01*
X0086000Y0128575D02*
X0086000Y0123425D01*
X0096000Y0123425D02*
X0096000Y0128575D01*
X0106000Y0128575D02*
X0106000Y0123425D01*
X0116000Y0123425D02*
X0116000Y0128575D01*
X0126000Y0128575D02*
X0126000Y0123425D01*
X0136000Y0123425D02*
X0136000Y0128575D01*
X0146000Y0128575D02*
X0146000Y0123425D01*
X0156000Y0123425D02*
X0156000Y0128575D01*
D12*
X0151000Y0106000D03*
X0161000Y0106000D03*
X0161000Y0096000D03*
X0151000Y0096000D03*
X0151000Y0086000D03*
X0161000Y0086000D03*
D13*
X0220567Y0081000D03*
X0173323Y0059346D03*
X0210724Y0051472D03*
X0232378Y0057378D03*
X0084740Y0102654D03*
X0159543Y0114465D03*
M02*
