G75*
%MOIN*%
%OFA0B0*%
%FSLAX25Y25*%
%IPPOS*%
%LPD*%
%AMOC8*
5,1,8,0,0,1.08239X$1,22.5*
%
%ADD10C,0.00600*%
%ADD11C,0.06000*%
%ADD12C,0.05150*%
%ADD13C,0.05150*%
%ADD14C,0.02000*%
%ADD15C,0.04000*%
%ADD16C,0.05000*%
%ADD17C,0.02400*%
%ADD18C,0.01600*%
D10*
X0013565Y0012368D02*
X0013565Y0016638D01*
X0015700Y0014503D02*
X0011430Y0014503D01*
X0203539Y0063435D02*
X0205674Y0061300D01*
X0207809Y0063435D01*
X0207809Y0067705D01*
X0209984Y0067705D02*
X0214255Y0067705D01*
X0214255Y0064503D01*
X0212119Y0065570D01*
X0211052Y0065570D01*
X0209984Y0064503D01*
X0209984Y0062368D01*
X0211052Y0061300D01*
X0213187Y0061300D01*
X0214255Y0062368D01*
X0216430Y0064503D02*
X0220700Y0064503D01*
X0218565Y0066638D02*
X0218565Y0062368D01*
X0203539Y0063435D02*
X0203539Y0067705D01*
D11*
X0226000Y0068000D02*
X0226000Y0074000D01*
X0236000Y0074000D02*
X0236000Y0068000D01*
X0273000Y0076000D02*
X0279000Y0076000D01*
X0279000Y0086000D02*
X0273000Y0086000D01*
X0273000Y0096000D02*
X0279000Y0096000D01*
X0279000Y0106000D02*
X0273000Y0106000D01*
X0273000Y0116000D02*
X0279000Y0116000D01*
X0279000Y0126000D02*
X0273000Y0126000D01*
X0236000Y0129000D02*
X0236000Y0123000D01*
X0226000Y0123000D02*
X0226000Y0129000D01*
X0216000Y0129000D02*
X0216000Y0123000D01*
X0206000Y0123000D02*
X0206000Y0129000D01*
X0233000Y0051000D02*
X0239000Y0051000D01*
X0239000Y0041000D02*
X0233000Y0041000D01*
X0233000Y0031000D02*
X0239000Y0031000D01*
X0239000Y0021000D02*
X0233000Y0021000D01*
X0191000Y0018000D02*
X0191000Y0024000D01*
X0181000Y0024000D02*
X0181000Y0018000D01*
X0171000Y0018000D02*
X0171000Y0024000D01*
X0161000Y0024000D02*
X0161000Y0018000D01*
X0151000Y0018000D02*
X0151000Y0024000D01*
X0141000Y0024000D02*
X0141000Y0018000D01*
X0116000Y0018000D02*
X0116000Y0024000D01*
X0106000Y0024000D02*
X0106000Y0018000D01*
X0096000Y0018000D02*
X0096000Y0024000D01*
X0086000Y0024000D02*
X0086000Y0018000D01*
X0076000Y0018000D02*
X0076000Y0024000D01*
X0066000Y0024000D02*
X0066000Y0018000D01*
X0041000Y0018000D02*
X0041000Y0024000D01*
X0031000Y0024000D02*
X0031000Y0018000D01*
X0021000Y0018000D02*
X0021000Y0024000D01*
X0398000Y0021000D02*
X0404000Y0021000D01*
X0404000Y0031000D02*
X0398000Y0031000D01*
X0398000Y0041000D02*
X0404000Y0041000D01*
X0404000Y0051000D02*
X0398000Y0051000D01*
D12*
X0156000Y0063425D02*
X0156000Y0068575D01*
X0146000Y0068575D02*
X0146000Y0063425D01*
X0136000Y0063425D02*
X0136000Y0068575D01*
X0126000Y0068575D02*
X0126000Y0063425D01*
X0116000Y0063425D02*
X0116000Y0068575D01*
X0106000Y0068575D02*
X0106000Y0063425D01*
X0096000Y0063425D02*
X0096000Y0068575D01*
X0086000Y0068575D02*
X0086000Y0063425D01*
X0076000Y0063425D02*
X0076000Y0068575D01*
X0066000Y0068575D02*
X0066000Y0063425D01*
X0056000Y0063425D02*
X0056000Y0068575D01*
X0046000Y0068575D02*
X0046000Y0063425D01*
X0036000Y0063425D02*
X0036000Y0068575D01*
X0026000Y0068575D02*
X0026000Y0063425D01*
X0016000Y0063425D02*
X0016000Y0068575D01*
X0016000Y0123425D02*
X0016000Y0128575D01*
X0026000Y0128575D02*
X0026000Y0123425D01*
X0036000Y0123425D02*
X0036000Y0128575D01*
X0046000Y0128575D02*
X0046000Y0123425D01*
X0056000Y0123425D02*
X0056000Y0128575D01*
X0066000Y0128575D02*
X0066000Y0123425D01*
X0076000Y0123425D02*
X0076000Y0128575D01*
X0086000Y0128575D02*
X0086000Y0123425D01*
X0096000Y0123425D02*
X0096000Y0128575D01*
X0106000Y0128575D02*
X0106000Y0123425D01*
X0116000Y0123425D02*
X0116000Y0128575D01*
X0126000Y0128575D02*
X0126000Y0123425D01*
X0136000Y0123425D02*
X0136000Y0128575D01*
X0146000Y0128575D02*
X0146000Y0123425D01*
X0156000Y0123425D02*
X0156000Y0128575D01*
D13*
X0151000Y0106000D03*
X0161000Y0106000D03*
X0161000Y0096000D03*
X0151000Y0096000D03*
X0151000Y0086000D03*
X0161000Y0086000D03*
D14*
X0147732Y0100685D02*
X0145764Y0098717D01*
X0017811Y0098717D01*
X0017811Y0124307D01*
X0016000Y0126000D01*
X0026000Y0126000D02*
X0026180Y0126276D01*
X0026180Y0134150D01*
X0047339Y0134150D01*
X0051276Y0130213D01*
X0051276Y0110528D01*
X0259937Y0110528D01*
X0273717Y0096748D01*
X0275685Y0096748D01*
X0276000Y0096000D01*
X0273717Y0086906D02*
X0259937Y0100685D01*
X0147732Y0100685D01*
X0159543Y0114465D02*
X0086709Y0114465D01*
X0076866Y0124307D01*
X0076000Y0126000D01*
X0074898Y0134150D02*
X0067024Y0126276D01*
X0066000Y0126000D01*
X0057181Y0126276D02*
X0056000Y0126000D01*
X0057181Y0126276D02*
X0068992Y0138087D01*
X0273717Y0138087D01*
X0284054Y0130705D01*
X0284218Y0116433D01*
X0277654Y0116433D01*
X0276000Y0116000D01*
X0276000Y0106000D02*
X0277654Y0104622D01*
X0284382Y0104786D01*
X0284218Y0085429D01*
X0281591Y0081000D01*
X0269780Y0081000D01*
X0259937Y0090843D01*
X0041433Y0090843D01*
X0017811Y0067220D01*
X0016000Y0066000D01*
X0086000Y0066000D02*
X0086709Y0065252D01*
X0096551Y0055409D01*
X0230409Y0055409D01*
X0232378Y0057378D01*
X0246000Y0071000D02*
X0256000Y0061000D01*
X0407732Y0061000D01*
X0409543Y0059189D01*
X0409543Y0027850D01*
X0407575Y0025882D01*
X0405606Y0025882D01*
X0401669Y0021945D01*
X0401000Y0021000D01*
X0401000Y0051000D02*
X0399701Y0051472D01*
X0276000Y0086000D02*
X0275685Y0086906D01*
X0273717Y0086906D01*
X0246000Y0071000D02*
X0236000Y0071000D01*
X0226472Y0071157D02*
X0226000Y0071000D01*
X0220567Y0081000D02*
X0110331Y0081000D01*
X0096551Y0067220D01*
X0096000Y0066000D01*
X0126000Y0066000D02*
X0126079Y0067220D01*
X0156000Y0066000D02*
X0157575Y0065252D01*
X0163480Y0059346D01*
X0173323Y0059346D01*
X0181197Y0021945D02*
X0181000Y0021000D01*
X0141827Y0021945D02*
X0141000Y0021000D01*
X0116236Y0019976D02*
X0116000Y0021000D01*
X0084740Y0102654D02*
X0037496Y0102654D01*
X0037496Y0124307D01*
X0036000Y0126000D01*
X0074898Y0134150D02*
X0267811Y0134150D01*
X0275685Y0126276D01*
X0276000Y0126000D01*
X0206000Y0126000D02*
X0204819Y0124307D01*
X0198913Y0118402D01*
X0131984Y0118402D01*
X0126079Y0124307D01*
X0126000Y0126000D01*
D15*
X0159543Y0114465D03*
X0084740Y0102654D03*
X0173323Y0059346D03*
X0210724Y0051472D03*
X0232378Y0057378D03*
X0220567Y0081000D03*
D16*
X0111000Y0007102D02*
X0021000Y0007102D01*
X0021000Y0021000D01*
X0031000Y0021000D02*
X0066000Y0021000D01*
X0066000Y0031000D01*
X0071000Y0036000D01*
X0126000Y0036000D01*
X0141000Y0021000D01*
X0116000Y0021000D02*
X0116000Y0012102D01*
X0111000Y0007102D01*
X0187102Y0007102D01*
X0191000Y0011000D01*
X0191000Y0021000D01*
D17*
X0189071Y0029819D02*
X0181197Y0021945D01*
X0189071Y0029819D02*
X0226472Y0029819D01*
X0230409Y0025882D01*
X0246000Y0025882D01*
X0245934Y0062119D01*
X0232118Y0062053D01*
X0226472Y0065528D01*
X0226472Y0069189D01*
X0226000Y0071000D01*
X0226472Y0071157D02*
X0224504Y0073126D01*
X0131984Y0073126D01*
X0126079Y0067220D01*
X0171354Y0051472D02*
X0141827Y0021945D01*
X0171354Y0051472D02*
X0210724Y0051472D01*
X0246000Y0025882D02*
X0369858Y0025882D01*
X0369858Y0026315D02*
X0399701Y0051472D01*
D18*
X0369858Y0026315D02*
X0369858Y0025882D01*
M02*
