G75*
%MOIN*%
%OFA0B0*%
%FSLAX25Y25*%
%IPPOS*%
%LPD*%
%AMOC8*
5,1,8,0,0,1.08239X$1,22.5*
%
%ADD10C,0.00600*%
%ADD11C,0.06000*%
%ADD12C,0.05150*%
%ADD13C,0.05150*%
%ADD14C,0.02400*%
%ADD15C,0.02000*%
%ADD16C,0.04000*%
D10*
X0291300Y0007368D02*
X0292368Y0006300D01*
X0294503Y0006300D01*
X0295570Y0007368D01*
X0295570Y0009503D01*
X0293435Y0009503D01*
X0291300Y0011638D02*
X0291300Y0007368D01*
X0297745Y0007368D02*
X0297745Y0009503D01*
X0298813Y0010570D01*
X0300948Y0010570D01*
X0302016Y0009503D01*
X0302016Y0008435D01*
X0297745Y0008435D01*
X0297745Y0007368D02*
X0298813Y0006300D01*
X0300948Y0006300D01*
X0304191Y0006300D02*
X0307394Y0006300D01*
X0308461Y0007368D01*
X0307394Y0008435D01*
X0305259Y0008435D01*
X0304191Y0009503D01*
X0305259Y0010570D01*
X0308461Y0010570D01*
X0317082Y0011638D02*
X0317082Y0007368D01*
X0318150Y0006300D01*
X0320285Y0006300D01*
X0321352Y0007368D01*
X0321352Y0009503D01*
X0319217Y0009503D01*
X0317082Y0011638D02*
X0318150Y0012705D01*
X0320285Y0012705D01*
X0321352Y0011638D01*
X0323527Y0012705D02*
X0324595Y0012705D01*
X0324595Y0006300D01*
X0323527Y0006300D02*
X0325663Y0006300D01*
X0327824Y0006300D02*
X0329960Y0006300D01*
X0328892Y0006300D02*
X0328892Y0010570D01*
X0327824Y0010570D01*
X0328892Y0012705D02*
X0328892Y0013773D01*
X0336392Y0012705D02*
X0336392Y0006300D01*
X0333189Y0006300D01*
X0332121Y0007368D01*
X0332121Y0009503D01*
X0333189Y0010570D01*
X0336392Y0010570D01*
X0338567Y0009503D02*
X0339635Y0010570D01*
X0341770Y0010570D01*
X0342837Y0009503D01*
X0342837Y0008435D01*
X0338567Y0008435D01*
X0338567Y0007368D02*
X0338567Y0009503D01*
X0338567Y0007368D02*
X0339635Y0006300D01*
X0341770Y0006300D01*
X0345012Y0006300D02*
X0345012Y0010570D01*
X0345012Y0008435D02*
X0347148Y0010570D01*
X0348215Y0010570D01*
X0350384Y0010570D02*
X0351451Y0009503D01*
X0353586Y0009503D01*
X0354654Y0008435D01*
X0354654Y0007368D01*
X0353586Y0006300D01*
X0351451Y0006300D01*
X0350384Y0007368D01*
X0356829Y0007368D02*
X0356829Y0009503D01*
X0357897Y0010570D01*
X0361100Y0010570D01*
X0363275Y0009503D02*
X0363275Y0007368D01*
X0364342Y0006300D01*
X0366477Y0006300D01*
X0367545Y0007368D01*
X0367545Y0009503D01*
X0366477Y0010570D01*
X0364342Y0010570D01*
X0363275Y0009503D01*
X0369720Y0010570D02*
X0369720Y0006300D01*
X0369720Y0008435D02*
X0371855Y0010570D01*
X0372923Y0010570D01*
X0375091Y0009503D02*
X0376159Y0010570D01*
X0378294Y0010570D01*
X0379362Y0009503D01*
X0379362Y0008435D01*
X0375091Y0008435D01*
X0375091Y0007368D02*
X0375091Y0009503D01*
X0375091Y0007368D02*
X0376159Y0006300D01*
X0378294Y0006300D01*
X0381537Y0005232D02*
X0385807Y0005232D01*
X0387982Y0008435D02*
X0390118Y0006300D01*
X0392253Y0008435D01*
X0392253Y0012705D01*
X0394428Y0010570D02*
X0396563Y0012705D01*
X0396563Y0006300D01*
X0394428Y0006300D02*
X0398698Y0006300D01*
X0387982Y0008435D02*
X0387982Y0012705D01*
X0361100Y0006300D02*
X0357897Y0006300D01*
X0356829Y0007368D01*
X0354654Y0011638D02*
X0353586Y0012705D01*
X0351451Y0012705D01*
X0350384Y0011638D01*
X0350384Y0010570D01*
X0314907Y0005232D02*
X0310636Y0005232D01*
X0295570Y0011638D02*
X0294503Y0012705D01*
X0292368Y0012705D01*
X0291300Y0011638D01*
D11*
X0021000Y0018000D02*
X0021000Y0024000D01*
X0031000Y0024000D02*
X0031000Y0018000D01*
X0041000Y0018000D02*
X0041000Y0024000D01*
X0066000Y0024000D02*
X0066000Y0018000D01*
X0076000Y0018000D02*
X0076000Y0024000D01*
X0086000Y0024000D02*
X0086000Y0018000D01*
X0096000Y0018000D02*
X0096000Y0024000D01*
X0106000Y0024000D02*
X0106000Y0018000D01*
X0116000Y0018000D02*
X0116000Y0024000D01*
X0141000Y0024000D02*
X0141000Y0018000D01*
X0151000Y0018000D02*
X0151000Y0024000D01*
X0161000Y0024000D02*
X0161000Y0018000D01*
X0171000Y0018000D02*
X0171000Y0024000D01*
X0181000Y0024000D02*
X0181000Y0018000D01*
X0191000Y0018000D02*
X0191000Y0024000D01*
X0233000Y0021000D02*
X0239000Y0021000D01*
X0239000Y0031000D02*
X0233000Y0031000D01*
X0233000Y0041000D02*
X0239000Y0041000D01*
X0239000Y0051000D02*
X0233000Y0051000D01*
X0236000Y0068000D02*
X0236000Y0074000D01*
X0226000Y0074000D02*
X0226000Y0068000D01*
X0273000Y0076000D02*
X0279000Y0076000D01*
X0279000Y0086000D02*
X0273000Y0086000D01*
X0273000Y0096000D02*
X0279000Y0096000D01*
X0279000Y0106000D02*
X0273000Y0106000D01*
X0273000Y0116000D02*
X0279000Y0116000D01*
X0279000Y0126000D02*
X0273000Y0126000D01*
X0236000Y0129000D02*
X0236000Y0123000D01*
X0226000Y0123000D02*
X0226000Y0129000D01*
X0216000Y0129000D02*
X0216000Y0123000D01*
X0206000Y0123000D02*
X0206000Y0129000D01*
X0398000Y0051000D02*
X0404000Y0051000D01*
X0404000Y0041000D02*
X0398000Y0041000D01*
X0398000Y0031000D02*
X0404000Y0031000D01*
X0404000Y0021000D02*
X0398000Y0021000D01*
D12*
X0156000Y0063425D02*
X0156000Y0068575D01*
X0146000Y0068575D02*
X0146000Y0063425D01*
X0136000Y0063425D02*
X0136000Y0068575D01*
X0126000Y0068575D02*
X0126000Y0063425D01*
X0116000Y0063425D02*
X0116000Y0068575D01*
X0106000Y0068575D02*
X0106000Y0063425D01*
X0096000Y0063425D02*
X0096000Y0068575D01*
X0086000Y0068575D02*
X0086000Y0063425D01*
X0076000Y0063425D02*
X0076000Y0068575D01*
X0066000Y0068575D02*
X0066000Y0063425D01*
X0056000Y0063425D02*
X0056000Y0068575D01*
X0046000Y0068575D02*
X0046000Y0063425D01*
X0036000Y0063425D02*
X0036000Y0068575D01*
X0026000Y0068575D02*
X0026000Y0063425D01*
X0016000Y0063425D02*
X0016000Y0068575D01*
X0016000Y0123425D02*
X0016000Y0128575D01*
X0026000Y0128575D02*
X0026000Y0123425D01*
X0036000Y0123425D02*
X0036000Y0128575D01*
X0046000Y0128575D02*
X0046000Y0123425D01*
X0056000Y0123425D02*
X0056000Y0128575D01*
X0066000Y0128575D02*
X0066000Y0123425D01*
X0076000Y0123425D02*
X0076000Y0128575D01*
X0086000Y0128575D02*
X0086000Y0123425D01*
X0096000Y0123425D02*
X0096000Y0128575D01*
X0106000Y0128575D02*
X0106000Y0123425D01*
X0116000Y0123425D02*
X0116000Y0128575D01*
X0126000Y0128575D02*
X0126000Y0123425D01*
X0136000Y0123425D02*
X0136000Y0128575D01*
X0146000Y0128575D02*
X0146000Y0123425D01*
X0156000Y0123425D02*
X0156000Y0128575D01*
D13*
X0151000Y0106000D03*
X0161000Y0106000D03*
X0161000Y0096000D03*
X0151000Y0096000D03*
X0151000Y0086000D03*
X0161000Y0086000D03*
D14*
X0206556Y0078315D02*
X0206556Y0125444D01*
X0206000Y0126000D01*
X0216630Y0124307D02*
X0216630Y0079031D01*
X0224504Y0071157D01*
X0222535Y0063283D02*
X0206556Y0078315D01*
X0222535Y0063283D02*
X0210724Y0051472D01*
X0189071Y0043598D02*
X0189071Y0021945D01*
X0189071Y0043598D02*
X0173323Y0059346D01*
D15*
X0200882Y0055409D02*
X0234346Y0021945D01*
X0236000Y0021000D01*
X0244189Y0023913D02*
X0236315Y0031787D01*
X0236000Y0031000D01*
X0236315Y0031787D02*
X0236315Y0039661D01*
X0236000Y0041000D01*
X0236000Y0051000D02*
X0236315Y0051472D01*
X0246157Y0061315D01*
X0246157Y0134150D01*
X0153638Y0134150D01*
X0149701Y0130213D01*
X0149701Y0128244D01*
X0147732Y0126276D01*
X0146000Y0126000D01*
X0156000Y0126000D02*
X0157575Y0124307D01*
X0200882Y0124307D01*
X0200882Y0055409D01*
X0196945Y0049504D02*
X0230409Y0016039D01*
X0244189Y0016039D01*
X0244189Y0023913D01*
X0191000Y0021000D02*
X0189071Y0021945D01*
X0181000Y0021000D02*
X0179228Y0019976D01*
X0179228Y0012102D01*
X0114268Y0012102D01*
X0106394Y0019976D01*
X0106000Y0021000D01*
X0096000Y0021000D02*
X0094583Y0021945D01*
X0094583Y0023913D01*
X0090646Y0027850D01*
X0090646Y0096748D01*
X0084740Y0102654D01*
X0070961Y0100685D02*
X0070961Y0016039D01*
X0074898Y0012102D01*
X0084740Y0012102D01*
X0084740Y0019976D01*
X0086000Y0021000D01*
X0080803Y0025882D02*
X0076866Y0021945D01*
X0076000Y0021000D01*
X0080803Y0025882D02*
X0080803Y0138087D01*
X0104425Y0138087D01*
X0112299Y0130213D01*
X0112299Y0128244D01*
X0114268Y0126276D01*
X0116000Y0126000D01*
X0112299Y0118402D02*
X0106394Y0124307D01*
X0106000Y0126000D01*
X0100488Y0122339D02*
X0149701Y0073126D01*
X0161512Y0073126D01*
X0161512Y0021945D01*
X0161000Y0021000D01*
X0169386Y0021945D02*
X0171000Y0021000D01*
X0169386Y0021945D02*
X0169386Y0104622D01*
X0159543Y0114465D01*
X0196945Y0118402D02*
X0196945Y0049504D01*
X0222535Y0063283D02*
X0224504Y0061315D01*
X0230409Y0061315D01*
X0230409Y0065252D01*
X0234346Y0069189D01*
X0236000Y0071000D01*
X0242220Y0067220D02*
X0242220Y0118402D01*
X0236315Y0124307D01*
X0236000Y0126000D01*
X0226000Y0126000D02*
X0224504Y0124307D01*
X0224504Y0084937D01*
X0220567Y0081000D01*
X0224504Y0071157D02*
X0226000Y0071000D01*
X0232378Y0057378D02*
X0242220Y0067220D01*
X0149701Y0029819D02*
X0149701Y0021945D01*
X0151000Y0021000D01*
X0149701Y0029819D02*
X0131984Y0029819D01*
X0100488Y0061315D01*
X0100488Y0071157D01*
X0096551Y0075094D01*
X0096551Y0124307D01*
X0096000Y0126000D01*
X0100488Y0122339D02*
X0100488Y0134150D01*
X0094583Y0134150D01*
X0086709Y0126276D01*
X0086000Y0126000D01*
X0112299Y0118402D02*
X0196945Y0118402D01*
X0216000Y0126000D02*
X0216630Y0124307D01*
X0070961Y0100685D02*
X0047339Y0124307D01*
X0046000Y0126000D01*
D16*
X0084740Y0102654D03*
X0159543Y0114465D03*
X0220567Y0081000D03*
X0173323Y0059346D03*
X0210724Y0051472D03*
X0232378Y0057378D03*
M02*
