%
M48
M72
T01C0.02400
T02C0.03150
T03C0.04000
T04C0.12598
%
T01
X173323Y59346
X210724Y51472
X232378Y57378
X220567Y81000
X159543Y114465
X84740Y102654
T02
X151000Y106000
X161000Y106000
X161000Y96000
X151000Y96000
X151000Y86000
X161000Y86000
X156000Y66000
X146000Y66000
X136000Y66000
X126000Y66000
X116000Y66000
X106000Y66000
X96000Y66000
X86000Y66000
X76000Y66000
X66000Y66000
X56000Y66000
X46000Y66000
X36000Y66000
X26000Y66000
X16000Y66000
X16000Y126000
X26000Y126000
X36000Y126000
X46000Y126000
X56000Y126000
X66000Y126000
X76000Y126000
X86000Y126000
X96000Y126000
X106000Y126000
X116000Y126000
X126000Y126000
X136000Y126000
X146000Y126000
X156000Y126000
T03
X21000Y21000
X31000Y21000
X41000Y21000
X66000Y21000
X76000Y21000
X86000Y21000
X96000Y21000
X106000Y21000
X116000Y21000
X141000Y21000
X151000Y21000
X161000Y21000
X171000Y21000
X181000Y21000
X191000Y21000
X236000Y21000
X236000Y31000
X236000Y41000
X236000Y51000
X236000Y71000
X226000Y71000
X276000Y76000
X276000Y86000
X276000Y96000
X276000Y106000
X276000Y116000
X276000Y126000
X236000Y126000
X226000Y126000
X216000Y126000
X206000Y126000
X401000Y51000
X401000Y41000
X401000Y31000
X401000Y21000
T04
X411000Y11000
X211000Y11000
X11000Y51000
X256000Y121000
X411000Y136000
M30
