G75*
%MOIN*%
%OFA0B0*%
%FSLAX25Y25*%
%IPPOS*%
%LPD*%
%AMOC8*
5,1,8,0,0,1.08239X$1,22.5*
%
%ADD10C,0.00800*%
%ADD11C,0.00000*%
D10*
X0057595Y0028933D02*
X0057595Y0078933D01*
X0302595Y0078933D01*
X0302595Y0028933D01*
X0057595Y0028933D01*
D11*
X0061296Y0038933D02*
X0061298Y0039091D01*
X0061304Y0039249D01*
X0061314Y0039407D01*
X0061328Y0039565D01*
X0061346Y0039722D01*
X0061367Y0039879D01*
X0061393Y0040035D01*
X0061423Y0040191D01*
X0061456Y0040346D01*
X0061494Y0040499D01*
X0061535Y0040652D01*
X0061580Y0040804D01*
X0061629Y0040955D01*
X0061682Y0041104D01*
X0061738Y0041252D01*
X0061798Y0041398D01*
X0061862Y0041543D01*
X0061930Y0041686D01*
X0062001Y0041828D01*
X0062075Y0041968D01*
X0062153Y0042105D01*
X0062235Y0042241D01*
X0062319Y0042375D01*
X0062408Y0042506D01*
X0062499Y0042635D01*
X0062594Y0042762D01*
X0062691Y0042887D01*
X0062792Y0043009D01*
X0062896Y0043128D01*
X0063003Y0043245D01*
X0063113Y0043359D01*
X0063226Y0043470D01*
X0063341Y0043579D01*
X0063459Y0043684D01*
X0063580Y0043786D01*
X0063703Y0043886D01*
X0063829Y0043982D01*
X0063957Y0044075D01*
X0064087Y0044165D01*
X0064220Y0044251D01*
X0064355Y0044335D01*
X0064491Y0044414D01*
X0064630Y0044491D01*
X0064771Y0044563D01*
X0064913Y0044633D01*
X0065057Y0044698D01*
X0065203Y0044760D01*
X0065350Y0044818D01*
X0065499Y0044873D01*
X0065649Y0044924D01*
X0065800Y0044971D01*
X0065952Y0045014D01*
X0066105Y0045053D01*
X0066260Y0045089D01*
X0066415Y0045120D01*
X0066571Y0045148D01*
X0066727Y0045172D01*
X0066884Y0045192D01*
X0067042Y0045208D01*
X0067199Y0045220D01*
X0067358Y0045228D01*
X0067516Y0045232D01*
X0067674Y0045232D01*
X0067832Y0045228D01*
X0067991Y0045220D01*
X0068148Y0045208D01*
X0068306Y0045192D01*
X0068463Y0045172D01*
X0068619Y0045148D01*
X0068775Y0045120D01*
X0068930Y0045089D01*
X0069085Y0045053D01*
X0069238Y0045014D01*
X0069390Y0044971D01*
X0069541Y0044924D01*
X0069691Y0044873D01*
X0069840Y0044818D01*
X0069987Y0044760D01*
X0070133Y0044698D01*
X0070277Y0044633D01*
X0070419Y0044563D01*
X0070560Y0044491D01*
X0070699Y0044414D01*
X0070835Y0044335D01*
X0070970Y0044251D01*
X0071103Y0044165D01*
X0071233Y0044075D01*
X0071361Y0043982D01*
X0071487Y0043886D01*
X0071610Y0043786D01*
X0071731Y0043684D01*
X0071849Y0043579D01*
X0071964Y0043470D01*
X0072077Y0043359D01*
X0072187Y0043245D01*
X0072294Y0043128D01*
X0072398Y0043009D01*
X0072499Y0042887D01*
X0072596Y0042762D01*
X0072691Y0042635D01*
X0072782Y0042506D01*
X0072871Y0042375D01*
X0072955Y0042241D01*
X0073037Y0042105D01*
X0073115Y0041968D01*
X0073189Y0041828D01*
X0073260Y0041686D01*
X0073328Y0041543D01*
X0073392Y0041398D01*
X0073452Y0041252D01*
X0073508Y0041104D01*
X0073561Y0040955D01*
X0073610Y0040804D01*
X0073655Y0040652D01*
X0073696Y0040499D01*
X0073734Y0040346D01*
X0073767Y0040191D01*
X0073797Y0040035D01*
X0073823Y0039879D01*
X0073844Y0039722D01*
X0073862Y0039565D01*
X0073876Y0039407D01*
X0073886Y0039249D01*
X0073892Y0039091D01*
X0073894Y0038933D01*
X0073892Y0038775D01*
X0073886Y0038617D01*
X0073876Y0038459D01*
X0073862Y0038301D01*
X0073844Y0038144D01*
X0073823Y0037987D01*
X0073797Y0037831D01*
X0073767Y0037675D01*
X0073734Y0037520D01*
X0073696Y0037367D01*
X0073655Y0037214D01*
X0073610Y0037062D01*
X0073561Y0036911D01*
X0073508Y0036762D01*
X0073452Y0036614D01*
X0073392Y0036468D01*
X0073328Y0036323D01*
X0073260Y0036180D01*
X0073189Y0036038D01*
X0073115Y0035898D01*
X0073037Y0035761D01*
X0072955Y0035625D01*
X0072871Y0035491D01*
X0072782Y0035360D01*
X0072691Y0035231D01*
X0072596Y0035104D01*
X0072499Y0034979D01*
X0072398Y0034857D01*
X0072294Y0034738D01*
X0072187Y0034621D01*
X0072077Y0034507D01*
X0071964Y0034396D01*
X0071849Y0034287D01*
X0071731Y0034182D01*
X0071610Y0034080D01*
X0071487Y0033980D01*
X0071361Y0033884D01*
X0071233Y0033791D01*
X0071103Y0033701D01*
X0070970Y0033615D01*
X0070835Y0033531D01*
X0070699Y0033452D01*
X0070560Y0033375D01*
X0070419Y0033303D01*
X0070277Y0033233D01*
X0070133Y0033168D01*
X0069987Y0033106D01*
X0069840Y0033048D01*
X0069691Y0032993D01*
X0069541Y0032942D01*
X0069390Y0032895D01*
X0069238Y0032852D01*
X0069085Y0032813D01*
X0068930Y0032777D01*
X0068775Y0032746D01*
X0068619Y0032718D01*
X0068463Y0032694D01*
X0068306Y0032674D01*
X0068148Y0032658D01*
X0067991Y0032646D01*
X0067832Y0032638D01*
X0067674Y0032634D01*
X0067516Y0032634D01*
X0067358Y0032638D01*
X0067199Y0032646D01*
X0067042Y0032658D01*
X0066884Y0032674D01*
X0066727Y0032694D01*
X0066571Y0032718D01*
X0066415Y0032746D01*
X0066260Y0032777D01*
X0066105Y0032813D01*
X0065952Y0032852D01*
X0065800Y0032895D01*
X0065649Y0032942D01*
X0065499Y0032993D01*
X0065350Y0033048D01*
X0065203Y0033106D01*
X0065057Y0033168D01*
X0064913Y0033233D01*
X0064771Y0033303D01*
X0064630Y0033375D01*
X0064491Y0033452D01*
X0064355Y0033531D01*
X0064220Y0033615D01*
X0064087Y0033701D01*
X0063957Y0033791D01*
X0063829Y0033884D01*
X0063703Y0033980D01*
X0063580Y0034080D01*
X0063459Y0034182D01*
X0063341Y0034287D01*
X0063226Y0034396D01*
X0063113Y0034507D01*
X0063003Y0034621D01*
X0062896Y0034738D01*
X0062792Y0034857D01*
X0062691Y0034979D01*
X0062594Y0035104D01*
X0062499Y0035231D01*
X0062408Y0035360D01*
X0062319Y0035491D01*
X0062235Y0035625D01*
X0062153Y0035761D01*
X0062075Y0035898D01*
X0062001Y0036038D01*
X0061930Y0036180D01*
X0061862Y0036323D01*
X0061798Y0036468D01*
X0061738Y0036614D01*
X0061682Y0036762D01*
X0061629Y0036911D01*
X0061580Y0037062D01*
X0061535Y0037214D01*
X0061494Y0037367D01*
X0061456Y0037520D01*
X0061423Y0037675D01*
X0061393Y0037831D01*
X0061367Y0037987D01*
X0061346Y0038144D01*
X0061328Y0038301D01*
X0061314Y0038459D01*
X0061304Y0038617D01*
X0061298Y0038775D01*
X0061296Y0038933D01*
X0286296Y0038933D02*
X0286298Y0039091D01*
X0286304Y0039249D01*
X0286314Y0039407D01*
X0286328Y0039565D01*
X0286346Y0039722D01*
X0286367Y0039879D01*
X0286393Y0040035D01*
X0286423Y0040191D01*
X0286456Y0040346D01*
X0286494Y0040499D01*
X0286535Y0040652D01*
X0286580Y0040804D01*
X0286629Y0040955D01*
X0286682Y0041104D01*
X0286738Y0041252D01*
X0286798Y0041398D01*
X0286862Y0041543D01*
X0286930Y0041686D01*
X0287001Y0041828D01*
X0287075Y0041968D01*
X0287153Y0042105D01*
X0287235Y0042241D01*
X0287319Y0042375D01*
X0287408Y0042506D01*
X0287499Y0042635D01*
X0287594Y0042762D01*
X0287691Y0042887D01*
X0287792Y0043009D01*
X0287896Y0043128D01*
X0288003Y0043245D01*
X0288113Y0043359D01*
X0288226Y0043470D01*
X0288341Y0043579D01*
X0288459Y0043684D01*
X0288580Y0043786D01*
X0288703Y0043886D01*
X0288829Y0043982D01*
X0288957Y0044075D01*
X0289087Y0044165D01*
X0289220Y0044251D01*
X0289355Y0044335D01*
X0289491Y0044414D01*
X0289630Y0044491D01*
X0289771Y0044563D01*
X0289913Y0044633D01*
X0290057Y0044698D01*
X0290203Y0044760D01*
X0290350Y0044818D01*
X0290499Y0044873D01*
X0290649Y0044924D01*
X0290800Y0044971D01*
X0290952Y0045014D01*
X0291105Y0045053D01*
X0291260Y0045089D01*
X0291415Y0045120D01*
X0291571Y0045148D01*
X0291727Y0045172D01*
X0291884Y0045192D01*
X0292042Y0045208D01*
X0292199Y0045220D01*
X0292358Y0045228D01*
X0292516Y0045232D01*
X0292674Y0045232D01*
X0292832Y0045228D01*
X0292991Y0045220D01*
X0293148Y0045208D01*
X0293306Y0045192D01*
X0293463Y0045172D01*
X0293619Y0045148D01*
X0293775Y0045120D01*
X0293930Y0045089D01*
X0294085Y0045053D01*
X0294238Y0045014D01*
X0294390Y0044971D01*
X0294541Y0044924D01*
X0294691Y0044873D01*
X0294840Y0044818D01*
X0294987Y0044760D01*
X0295133Y0044698D01*
X0295277Y0044633D01*
X0295419Y0044563D01*
X0295560Y0044491D01*
X0295699Y0044414D01*
X0295835Y0044335D01*
X0295970Y0044251D01*
X0296103Y0044165D01*
X0296233Y0044075D01*
X0296361Y0043982D01*
X0296487Y0043886D01*
X0296610Y0043786D01*
X0296731Y0043684D01*
X0296849Y0043579D01*
X0296964Y0043470D01*
X0297077Y0043359D01*
X0297187Y0043245D01*
X0297294Y0043128D01*
X0297398Y0043009D01*
X0297499Y0042887D01*
X0297596Y0042762D01*
X0297691Y0042635D01*
X0297782Y0042506D01*
X0297871Y0042375D01*
X0297955Y0042241D01*
X0298037Y0042105D01*
X0298115Y0041968D01*
X0298189Y0041828D01*
X0298260Y0041686D01*
X0298328Y0041543D01*
X0298392Y0041398D01*
X0298452Y0041252D01*
X0298508Y0041104D01*
X0298561Y0040955D01*
X0298610Y0040804D01*
X0298655Y0040652D01*
X0298696Y0040499D01*
X0298734Y0040346D01*
X0298767Y0040191D01*
X0298797Y0040035D01*
X0298823Y0039879D01*
X0298844Y0039722D01*
X0298862Y0039565D01*
X0298876Y0039407D01*
X0298886Y0039249D01*
X0298892Y0039091D01*
X0298894Y0038933D01*
X0298892Y0038775D01*
X0298886Y0038617D01*
X0298876Y0038459D01*
X0298862Y0038301D01*
X0298844Y0038144D01*
X0298823Y0037987D01*
X0298797Y0037831D01*
X0298767Y0037675D01*
X0298734Y0037520D01*
X0298696Y0037367D01*
X0298655Y0037214D01*
X0298610Y0037062D01*
X0298561Y0036911D01*
X0298508Y0036762D01*
X0298452Y0036614D01*
X0298392Y0036468D01*
X0298328Y0036323D01*
X0298260Y0036180D01*
X0298189Y0036038D01*
X0298115Y0035898D01*
X0298037Y0035761D01*
X0297955Y0035625D01*
X0297871Y0035491D01*
X0297782Y0035360D01*
X0297691Y0035231D01*
X0297596Y0035104D01*
X0297499Y0034979D01*
X0297398Y0034857D01*
X0297294Y0034738D01*
X0297187Y0034621D01*
X0297077Y0034507D01*
X0296964Y0034396D01*
X0296849Y0034287D01*
X0296731Y0034182D01*
X0296610Y0034080D01*
X0296487Y0033980D01*
X0296361Y0033884D01*
X0296233Y0033791D01*
X0296103Y0033701D01*
X0295970Y0033615D01*
X0295835Y0033531D01*
X0295699Y0033452D01*
X0295560Y0033375D01*
X0295419Y0033303D01*
X0295277Y0033233D01*
X0295133Y0033168D01*
X0294987Y0033106D01*
X0294840Y0033048D01*
X0294691Y0032993D01*
X0294541Y0032942D01*
X0294390Y0032895D01*
X0294238Y0032852D01*
X0294085Y0032813D01*
X0293930Y0032777D01*
X0293775Y0032746D01*
X0293619Y0032718D01*
X0293463Y0032694D01*
X0293306Y0032674D01*
X0293148Y0032658D01*
X0292991Y0032646D01*
X0292832Y0032638D01*
X0292674Y0032634D01*
X0292516Y0032634D01*
X0292358Y0032638D01*
X0292199Y0032646D01*
X0292042Y0032658D01*
X0291884Y0032674D01*
X0291727Y0032694D01*
X0291571Y0032718D01*
X0291415Y0032746D01*
X0291260Y0032777D01*
X0291105Y0032813D01*
X0290952Y0032852D01*
X0290800Y0032895D01*
X0290649Y0032942D01*
X0290499Y0032993D01*
X0290350Y0033048D01*
X0290203Y0033106D01*
X0290057Y0033168D01*
X0289913Y0033233D01*
X0289771Y0033303D01*
X0289630Y0033375D01*
X0289491Y0033452D01*
X0289355Y0033531D01*
X0289220Y0033615D01*
X0289087Y0033701D01*
X0288957Y0033791D01*
X0288829Y0033884D01*
X0288703Y0033980D01*
X0288580Y0034080D01*
X0288459Y0034182D01*
X0288341Y0034287D01*
X0288226Y0034396D01*
X0288113Y0034507D01*
X0288003Y0034621D01*
X0287896Y0034738D01*
X0287792Y0034857D01*
X0287691Y0034979D01*
X0287594Y0035104D01*
X0287499Y0035231D01*
X0287408Y0035360D01*
X0287319Y0035491D01*
X0287235Y0035625D01*
X0287153Y0035761D01*
X0287075Y0035898D01*
X0287001Y0036038D01*
X0286930Y0036180D01*
X0286862Y0036323D01*
X0286798Y0036468D01*
X0286738Y0036614D01*
X0286682Y0036762D01*
X0286629Y0036911D01*
X0286580Y0037062D01*
X0286535Y0037214D01*
X0286494Y0037367D01*
X0286456Y0037520D01*
X0286423Y0037675D01*
X0286393Y0037831D01*
X0286367Y0037987D01*
X0286346Y0038144D01*
X0286328Y0038301D01*
X0286314Y0038459D01*
X0286304Y0038617D01*
X0286298Y0038775D01*
X0286296Y0038933D01*
M02*
