G75*
%MOIN*%
%OFA0B0*%
%FSLAX25Y25*%
%IPPOS*%
%LPD*%
%AMOC8*
5,1,8,0,0,1.08239X$1,22.5*
%
%ADD10C,0.07400*%
%ADD11C,0.05943*%
%ADD12C,0.05600*%
D10*
X0097595Y0035233D02*
X0097595Y0042633D01*
X0115595Y0042633D02*
X0115595Y0035233D01*
X0133595Y0035233D02*
X0133595Y0042633D01*
X0151595Y0042633D02*
X0151595Y0035233D01*
X0169595Y0035233D02*
X0169595Y0042633D01*
X0185095Y0042633D02*
X0185095Y0035233D01*
X0203595Y0035233D02*
X0203595Y0042633D01*
X0221595Y0042633D02*
X0221595Y0035233D01*
X0239595Y0035233D02*
X0239595Y0042633D01*
X0257595Y0042633D02*
X0257595Y0035233D01*
D11*
X0253658Y0063933D03*
X0261532Y0063933D03*
X0283658Y0063933D03*
X0291532Y0063933D03*
X0231532Y0063933D03*
X0223658Y0063933D03*
X0201532Y0063933D03*
X0193658Y0063933D03*
X0166532Y0063933D03*
X0158658Y0063933D03*
X0136532Y0063933D03*
X0128658Y0063933D03*
X0106532Y0063933D03*
X0098658Y0063933D03*
X0076532Y0063933D03*
X0068658Y0063933D03*
D12*
X0092595Y0043933D02*
X0097595Y0038933D01*
X0092595Y0043933D02*
X0092595Y0053933D01*
X0077595Y0053933D01*
X0076532Y0054996D01*
X0076532Y0063933D01*
X0068658Y0063933D02*
X0067595Y0063933D01*
X0067595Y0073933D01*
X0097595Y0073933D01*
X0097595Y0063933D01*
X0098658Y0063933D01*
X0098658Y0073933D01*
X0127595Y0073933D01*
X0127595Y0063933D01*
X0128658Y0063933D01*
X0128658Y0073933D01*
X0157595Y0073933D01*
X0157595Y0063933D01*
X0158658Y0063933D01*
X0158658Y0073933D01*
X0172595Y0073933D01*
X0177595Y0068933D01*
X0177595Y0046933D01*
X0169595Y0038933D01*
X0182595Y0041433D02*
X0185095Y0038933D01*
X0182595Y0041433D02*
X0182595Y0058933D01*
X0187595Y0063933D01*
X0187595Y0068933D01*
X0192595Y0073933D01*
X0193658Y0072870D01*
X0193658Y0063933D01*
X0192595Y0064996D01*
X0192595Y0073933D01*
X0222595Y0073933D01*
X0223658Y0072870D01*
X0223658Y0063933D01*
X0222595Y0064996D01*
X0222595Y0073933D01*
X0252595Y0073933D01*
X0253658Y0072870D01*
X0253658Y0063933D01*
X0252595Y0064996D01*
X0252595Y0073933D01*
X0282595Y0073933D01*
X0283658Y0072870D01*
X0283658Y0063933D01*
X0291532Y0063933D02*
X0292595Y0062870D01*
X0292595Y0053933D01*
X0277595Y0038933D01*
X0257595Y0038933D01*
X0242595Y0041933D02*
X0239595Y0038933D01*
X0242595Y0041933D02*
X0242595Y0053933D01*
X0257595Y0053933D01*
X0261532Y0057870D01*
X0261532Y0063933D01*
X0231532Y0063933D02*
X0231532Y0057870D01*
X0227595Y0053933D01*
X0222595Y0053933D01*
X0222595Y0039933D01*
X0221595Y0038933D01*
X0207595Y0042933D02*
X0203595Y0038933D01*
X0207595Y0042933D02*
X0207595Y0063933D01*
X0201532Y0063933D01*
X0166532Y0063933D02*
X0166532Y0057870D01*
X0162595Y0053933D01*
X0152595Y0053933D01*
X0152595Y0039933D01*
X0151595Y0038933D01*
X0136532Y0041870D02*
X0133595Y0038933D01*
X0136532Y0041870D02*
X0136532Y0063933D01*
X0128658Y0073933D02*
X0127595Y0073933D01*
X0106532Y0063933D02*
X0106532Y0054996D01*
X0107595Y0053933D01*
X0112595Y0053933D01*
X0112595Y0041933D01*
X0115595Y0038933D01*
X0098658Y0073933D02*
X0097595Y0073933D01*
X0157595Y0073933D02*
X0158658Y0073933D01*
M02*
