%
M48
M72
T01C0.03543
T02C0.04400
T03C0.12598
%
T01
X68658Y63933
X76532Y63933
X98658Y63933
X106532Y63933
X128658Y63933
X136532Y63933
X158658Y63933
X166532Y63933
X193658Y63933
X201532Y63933
X223658Y63933
X231532Y63933
X253658Y63933
X261532Y63933
X283658Y63933
X291532Y63933
T02
X257595Y38933
X239595Y38933
X221595Y38933
X203595Y38933
X185095Y38933
X169595Y38933
X151595Y38933
X133595Y38933
X115595Y38933
X97595Y38933
T03
X67595Y38933
X292595Y38933
M30
